<?xml version="1.0" encoding="iso-8859-1"?>
<!-- Generator: Adobe Illustrator 17.1.0, SVG Export Plug-In . SVG Version: 6.00 Build 0)  -->
<!DOCTYPE svg PUBLIC "-//W3C//DTD SVG 1.1//EN" "http://www.w3.org/Graphics/SVG/1.1/DTD/svg11.dtd">
<svg version="1.1" id="Capa_1" xmlns="http://www.w3.org/2000/svg" xmlns:xlink="http://www.w3.org/1999/xlink" x="0px" y="0px"
	 viewBox="0 0 329.591 329.591" style="enable-background:new 0 0 329.591 329.591;" xml:space="preserve">
<g>
	<path style="fill:#222220;" d="M240.051,122.295c-4.143,0-7.5,3.357-7.5,7.5v95.899c0,18.398-14.968,33.367-33.366,33.367h-69.891
		c-18.398,0-33.366-14.969-33.366-33.367V110.107h118.873c4.143,0,7.5-3.357,7.5-7.5s-3.357-7.5-7.5-7.5H88.427
		c-4.143,0-7.5,3.357-7.5,7.5v123.088c0,13.745,5.772,26.159,15.009,34.973v44.381c0,13.532,11.009,24.542,24.541,24.542h0.345
		c13.532,0,24.541-11.01,24.541-24.542v-30.987h37.752v30.987c0,13.532,11.009,24.542,24.541,24.542h0.345
		c13.532,0,24.541-11.01,24.541-24.542v-44.381c9.236-8.814,15.009-21.229,15.009-34.973v-95.899
		C247.551,125.653,244.193,122.295,240.051,122.295z M130.363,305.049c0,5.262-4.28,9.542-9.541,9.542h-0.345
		c-5.261,0-9.541-4.28-9.541-9.542v-34.616c5.665,2.333,11.861,3.629,18.357,3.629h1.069V305.049z M217.542,305.049
		c0,5.262-4.28,9.542-9.541,9.542h-0.345c-5.261,0-9.541-4.28-9.541-9.542v-30.987h1.069c6.496,0,12.693-1.296,18.357-3.629V305.049
		z"/>
	<path style="fill:#222220;" d="M240.782,2.196l-19.604,19.604C208.26,10.884,191.584,4.286,173.387,4.286h-18.297
		c-17.726,0-34.014,6.259-46.786,16.672L89.543,2.196c-2.93-2.928-7.678-2.928-10.607,0c-2.929,2.93-2.929,7.678,0,10.607
		l18.75,18.75C87.219,44.342,80.927,60.673,80.927,78.449v0.673c0,4.143,3.357,7.5,7.5,7.5h151.623c4.143,0,7.5-3.357,7.5-7.5
		v-0.673c0-17.305-5.974-33.23-15.945-45.861l19.784-19.784c2.929-2.93,2.929-7.678,0-10.607
		C248.46-0.732,243.712-0.732,240.782,2.196z M96.319,71.622c1.468-12.725,6.996-24.227,15.242-33.19
		c0.769-0.359,1.492-0.848,2.127-1.482c0.629-0.629,1.115-1.346,1.474-2.107c10.532-9.651,24.551-15.556,39.929-15.556h18.297
		c30.314,0,55.377,22.916,58.771,52.336H96.319z"/>
	<path style="fill:#222220;" d="M47.484,95.107H47.14c-13.532,0-24.542,11.01-24.542,24.542v67.906
		c0,13.532,11.01,24.542,24.542,24.542h0.344c13.532,0,24.541-11.01,24.541-24.542v-67.906
		C72.025,106.117,61.016,95.107,47.484,95.107z M57.025,187.555c0,5.262-4.28,9.542-9.541,9.542H47.14
		c-5.262,0-9.542-4.28-9.542-9.542v-67.906c0-5.262,4.28-9.542,9.542-9.542h0.344c5.261,0,9.541,4.28,9.541,9.542V187.555z"/>
	<path style="fill:#222220;" d="M282.452,95.107h-0.345c-13.532,0-24.541,11.01-24.541,24.542v67.906
		c0,13.532,11.009,24.542,24.541,24.542h0.345c13.532,0,24.541-11.01,24.541-24.542v-67.906
		C306.993,106.117,295.984,95.107,282.452,95.107z M291.993,187.555c0,5.262-4.28,9.542-9.541,9.542h-0.345
		c-5.261,0-9.541-4.28-9.541-9.542v-67.906c0-5.262,4.28-9.542,9.541-9.542h0.345c5.261,0,9.541,4.28,9.541,9.542V187.555z"/>
</g>
<g>
</g>
<g>
</g>
<g>
</g>
<g>
</g>
<g>
</g>
<g>
</g>
<g>
</g>
<g>
</g>
<g>
</g>
<g>
</g>
<g>
</g>
<g>
</g>
<g>
</g>
<g>
</g>
<g>
</g>
</svg>
