<?xml version="1.0" encoding="UTF-8"?>
<svg width="402px" height="76px" viewBox="0 0 402 76" version="1.1" xmlns="http://www.w3.org/2000/svg" xmlns:xlink="http://www.w3.org/1999/xlink">
    <title>Neonwallet-rgb-outlinegreen-on-black</title>
    <g id="Symbols" stroke="none" stroke-width="1" fill="none" fill-rule="evenodd">
        <g id="Neonwallet-rgb-outlinegreen-on-black" transform="translate(1.000000, 1.000000)">
            <path d="M67.9809813,74 L5.81134437,74 C2.60176096,74 0,71.3909056 0,68.1722755 L0,5.82772449 C0,2.60909441 2.60176096,0 5.81134437,0 L67.9809813,0 C71.1905647,0 73.7920064,2.60909441 73.7920064,5.82772449 L73.7920064,68.1722755 C73.7920064,71.3909056 71.1905647,74 67.9809813,74 Z M34.0230526,49.1326091 L21.8512805,36.926209 L27.9004546,30.8603046 L34.0230526,37.0001601 L40.1459698,30.8603046 L46.1948246,36.926209 L34.0230526,49.1326091 Z M64.4895138,18.5799535 L58.440659,12.5140491 L52.3177418,18.6539046 L46.1948246,12.5140491 L40.0722266,18.6539046 L34.0230526,12.5880002 L9.67918926,37.0001601 L34.0230526,61.41232 L58.3669158,37.0001601 L52.2439986,30.8603046 L64.4895138,18.5799535 Z" id="Stroke-1" stroke="#4CFFB3" stroke-width="0.956663959"></path>
            <path d="M120.510695,35.4561524 L120.510695,49.1137212 L116.122498,49.1137212 L116.122498,35.7093786 C116.122498,31.7637236 113.701423,29.3358252 110.422566,29.3358252 C107.144028,29.3358252 103.209463,31.2073302 103.209463,36.3163532 L103.209463,49.1137212 L98.8212661,49.1137212 L98.8212661,25.4916527 L103.209463,25.4916527 L103.209463,29.0829191 C104.621757,26.1997897 108.455443,24.9858405 111.027835,24.9858405 C116.879083,24.9858405 120.561134,28.830013 120.510695,35.4561524" id="Fill-3" fill="#FFFFFF"></path>
            <path d="M151.681707,35.4055712 C151.126877,31.3590739 148.251851,29.1335003 144.367725,29.1335003 C140.383041,29.1335003 137.558454,31.156749 136.852307,35.4055712 L151.681707,35.4055712 Z M155.969345,39.1994826 L136.801868,39.1994826 C137.457576,43.3977236 140.483919,45.4715535 144.519362,45.4715535 C147.394388,45.4715535 150.067657,44.2576043 151.379072,41.8802871 L155.212759,43.3977236 C153.144439,47.4948021 148.907559,49.6195334 144.367725,49.6195334 C137.659013,49.6195334 132.262035,44.7128352 132.262035,37.226495 C132.262035,29.7404749 137.659013,24.9858405 144.367725,24.9858405 C151.076438,24.9858405 156.069904,29.7404749 156.069904,37.226495 C156.069904,37.8840508 156.019465,38.5419268 155.969345,39.1994826 L155.969345,39.1994826 Z" id="Fill-4" fill="#FFFFFF"></path>
            <path d="M186.736844,37.226495 C186.736844,32.3706982 183.105233,29.1335003 178.767155,29.1335003 C174.479836,29.1335003 170.898664,32.3706982 170.898664,37.226495 C170.898664,42.1331932 174.479836,45.4715535 178.767155,45.4715535 C183.105233,45.4715535 186.736844,42.1331932 186.736844,37.226495 Z M166.459709,37.226495 C166.459709,29.7404749 172.058762,24.9858405 178.767155,24.9858405 C185.475868,24.9858405 191.12536,29.7404749 191.12536,37.226495 C191.12536,44.7128352 185.475868,49.6195334 178.767155,49.6195334 C172.058762,49.6195334 166.459709,44.7128352 166.459709,37.226495 L166.459709,37.226495 Z" id="Fill-5" fill="#FFFFFF"></path>
            <path d="M224.969003,35.4561524 L224.969003,49.1137212 L220.580806,49.1137212 L220.580806,35.7093786 C220.580806,31.7637236 218.159732,29.3358252 214.881194,29.3358252 C211.602337,29.3358252 207.668091,31.2073302 207.668091,36.3163532 L207.668091,49.1137212 L203.279894,49.1137212 L203.279894,25.4916527 L207.668091,25.4916527 L207.668091,29.0829191 C209.080384,26.1997897 212.914071,24.9858405 215.486143,24.9858405 C221.337711,24.9858405 225.019761,28.830013 224.969003,35.4561524" id="Fill-6" fill="#FFFFFF"></path>
            <polyline id="Fill-7" fill="#FFFFFF" points="272.786497 25.4916527 264.009464 49.1137212 260.327414 49.1137212 253.820457 31.5613987 247.566015 49.1137212 243.934404 49.1137212 234.955934 25.4916527 239.697205 25.4916527 245.699771 42.2849368 251.702337 25.4916527 255.989336 25.4916527 262.042341 42.2849368 268.044907 25.4916527 272.786497 25.4916527"></polyline>
            <path d="M301.636993,37.226495 C301.636993,32.1177921 297.500672,29.1335003 293.616865,29.1335003 C289.329227,29.1335003 285.899372,32.4718606 285.899372,37.226495 C285.899372,41.9308683 289.329227,45.4715535 293.616865,45.4715535 C297.853745,45.4715535 301.636993,42.2849368 301.636993,37.226495 Z M306.02519,25.4916527 L306.02519,49.1137212 L301.636993,49.1137212 L301.636993,45.370391 C300.073063,48.1017767 296.643208,49.6195334 293.263473,49.6195334 C286.807275,49.6195334 281.460417,44.7128352 281.460417,37.2770762 C281.460417,29.7910561 286.756836,24.9858405 293.213353,24.9858405 C296.743767,24.9858405 300.073063,26.4017945 301.636993,29.1840815 L301.636993,25.4916527 L306.02519,25.4916527 L306.02519,25.4916527 Z" id="Fill-8" fill="#FFFFFF"></path>
            <polygon id="Fill-9" fill="#FFFFFF" points="319.742057 49.1137212 324.131531 49.1137212 324.131531 12.5928022 319.742057 12.5928022"></polygon>
            <polygon id="Fill-10" fill="#FFFFFF" points="337.801151 49.1137212 342.187433 49.1137212 342.187433 12.5928022 337.801151 12.5928022"></polygon>
            <path d="M373.66076,35.4055712 C373.108484,31.3590739 370.232181,29.1335003 366.347098,29.1335003 C362.363052,29.1335003 359.537826,31.156749 358.832318,35.4055712 L373.66076,35.4055712 Z M377.948079,39.1994826 L358.781241,39.1994826 C359.438864,43.3977236 362.465207,45.4715535 366.50033,45.4715535 C369.373441,45.4715535 372.048626,44.2576043 373.360679,41.8802871 L377.191493,43.3977236 C375.126046,47.4948021 370.886612,49.6195334 366.347098,49.6195334 C359.639982,49.6195334 354.241727,44.7128352 354.241727,37.226495 C354.241727,29.7404749 359.639982,24.9858405 366.347098,24.9858405 C373.057406,24.9858405 378.050234,29.7404749 378.050234,37.226495 C378.050234,37.8840508 377.999156,38.5419268 377.948079,39.1994826 L377.948079,39.1994826 Z" id="Fill-11" fill="#FFFFFF"></path>
            <polyline id="Fill-12" fill="#FFFFFF" points="401 29.285244 395.905018 29.285244 395.905018 49.1137212 391.518736 49.1137212 391.518736 29.285244 387.279302 29.285244 387.279302 25.4916527 391.518736 25.4916527 391.518736 16.5384572 395.905018 16.5384572 395.905018 25.4916527 401 25.4916527 401 29.285244"></polyline>
        </g>
    </g>
</svg>
