<?xml version="1.0" encoding="UTF-8"?>
<svg width="692px" height="207px" viewBox="0 0 692 207" version="1.1" xmlns="http://www.w3.org/2000/svg" xmlns:xlink="http://www.w3.org/1999/xlink">
    <!-- Generator: Sketch 51.3 (57544) - http://www.bohemiancoding.com/sketch -->
    <title>Neon_Logo_Dark</title>
    <desc>Created with Sketch.</desc>
    <defs>
        <linearGradient x1="103.426811%" y1="-6.52466824%" x2="-5.25042799%" y2="100%" id="linearGradient-1">
            <stop stop-color="#6AD8FF" offset="0%"></stop>
            <stop stop-color="#66ED87" offset="100%"></stop>
        </linearGradient>
    </defs>
    <g id="Screens-NEW" stroke="none" stroke-width="1" fill="none" fill-rule="evenodd">
        <g id="New-Logo---Dark" transform="translate(-292.000000, -246.000000)">
            <g id="Logo/Logo_Dark" transform="translate(208.919514, 179.066549)">
                <g id="Logo" transform="translate(2.671378, 0.688502)">
                    <polygon id="Area" fill-opacity="0" fill="#FFFFFF" points="3.46867454 1.60679466 853.18857 1.60679466 853.18857 337.149129 3.46867454 337.149129"></polygon>
                    <path d="M756.654801,118.029331 L772.255558,118.029331 L772.255558,227.759936 L696.866182,149.045827 L696.866182,221.463139 L681.265425,221.463139 L681.265425,110.995803 L756.654801,189.910922 L756.654801,118.029331 Z M603.292142,114.904722 C633.283674,114.904722 657.597595,139.232543 657.597595,169.241219 C657.597595,199.250817 633.283674,223.577716 603.292142,223.577716 C573.299688,223.577716 548.985767,199.250817 548.985767,169.241219 C548.985767,139.232543 573.299688,114.904722 603.292142,114.904722 Z M603.292142,207.535591 C624.429514,207.535591 641.563714,190.390674 641.563714,169.241219 C641.563714,148.092686 624.429514,130.947769 603.292142,130.947769 C582.15477,130.947769 565.019648,148.092686 565.019648,169.241219 C565.019648,190.390674 582.15477,207.535591 603.292142,207.535591 Z M534.846112,205.776563 C537.601518,210.933685 540.9292,215.733045 544.732397,220.111942 C544.924078,220.375653 545.101935,220.648585 545.297301,220.90953 L545.297301,221.463692 L466.908311,221.463692 L466.908311,221.377018 L466.908311,205.776563 L466.908311,178.007588 L466.908311,162.321381 L466.908311,133.716091 L466.908311,118.028963 L482.586478,118.028963 L545.02729,118.028963 C540.853634,122.780375 537.254097,128.043534 534.329128,133.716091 L482.586478,133.716091 L482.586478,162.321381 L526.042637,162.321381 C525.841741,164.602576 525.720097,166.907744 525.720097,169.241496 C525.720097,172.206864 525.902562,175.128895 526.226023,178.007588 L482.586478,178.007588 L482.586478,205.776563 L534.846112,205.776563 Z M426.500332,189.910553 L426.500332,118.028963 L442.101089,118.028963 L442.101089,227.760489 L366.711713,149.04638 L366.711713,221.463692 L351.110956,221.463692 L351.110956,110.995434 L426.500332,189.910553 Z" id="Logotype" fill="#FFFFFF"></path>
                    <path d="M214.835826,140.88823 L267.030145,87.7481207 L267.030145,196.011372 L214.835826,250.984312 L214.835826,140.88823 Z M204.07168,270.461708 C205.791107,272.272424 208.580686,272.887974 210.910707,271.958198 C211.68339,271.650422 212.375029,271.198895 212.968125,270.616518 L215.313803,268.310966 L215.463919,268.454717 L277.795211,202.80547 C278.901281,201.639793 279.510954,200.112895 279.510954,198.504906 L279.510954,72.4855898 C279.510954,69.9386095 277.989533,67.6699172 275.633725,66.7060454 C273.277917,65.7430952 270.603458,66.2922994 268.819564,68.1094648 L204.144436,133.956831 C202.997844,135.125272 202.355016,136.696402 202.355016,138.333878 L202.355016,250.525413 L95.8647555,138.405754 L151.880125,81.371455 L177.42471,108.270479 C182.155666,113.251098 190.019718,113.466725 195.014989,108.752415 L156.808166,68.62826 L156.250066,68.0781343 C155.637629,67.4681123 154.956121,67.0055276 154.22396,66.7060454 C151.869994,65.7421737 149.194614,66.2922994 147.409799,68.1094648 L82.7880867,133.902464 C82.7420388,133.95591 82.7005958,134.001984 82.6591527,134.048058 L82.5099577,134.215768 C82.3552369,134.39085 82.2069628,134.577911 82.0807917,134.759444 L81.9573834,134.928075 C81.8671297,135.065376 81.7372747,135.292982 81.6074198,135.554684 L81.5503204,135.677241 C81.4149398,135.973037 81.3283698,136.193272 81.2583771,136.407977 L81.2021987,136.568316 C81.1423365,136.776571 81.088921,137.018921 81.0410312,137.299052 L81.0124815,137.499014 C80.9673546,137.833512 80.9461726,138.099821 80.9461726,138.333878 L80.9461726,264.104394 C80.9461726,266.507623 82.1931484,268.815939 84.3334526,269.906975 C86.8485862,271.188759 89.8159097,270.654299 91.7195279,268.644543 L131.428432,227.908523 C126.40277,223.151825 118.500037,223.28544 113.638305,228.208926 L93.4269822,248.675075 L93.4269822,153.967767 L204.07168,270.461708 Z" id="Glyph-2" fill="url(#linearGradient-1)"></path>
                </g>
            </g>
        </g>
    </g>
</svg>