<?xml version="1.0" encoding="utf-8"?>
<!-- Generator: Adobe Illustrator 21.1.0, SVG Export Plug-In . SVG Version: 6.00 Build 0)  -->
<svg version="1.1" id="Layer_1" xmlns="http://www.w3.org/2000/svg" xmlns:xlink="http://www.w3.org/1999/xlink" x="0px" y="0px"
	 width="53.1px" height="14.8px" viewBox="0 0 53.1 14.8" style="enable-background:new 0 0 53.1 14.8;" xml:space="preserve">
<style type="text/css">
	.st0{fill:#FFFFFF;}
</style>
<g>
	<path class="st0" d="M12,0.6v14.2c-0.1-0.1-0.3-0.3-0.6-0.6c-0.3-0.3-0.7-0.7-1.1-1.1c-0.4-0.4-0.9-0.9-1.4-1.4
		c-0.5-0.5-1.1-1-1.6-1.5c-0.5-0.5-1.1-1-1.6-1.5c-0.5-0.5-1-0.9-1.4-1.4C3.8,6.9,3.4,6.6,3.1,6.3C2.9,6,2.7,5.8,2.6,5.7
		c0,0-0.1-0.1-0.1-0.2C2.3,5.4,2.3,5.3,2.2,5.2l0.1,0.6V14c0,0.1-0.1,0.1-0.1,0.1H0V0c0.1,0.1,0.3,0.3,0.6,0.6
		c0.3,0.3,0.7,0.6,1.1,1C2.1,2.1,2.6,2.5,3.1,3c0.5,0.5,1.1,1,1.6,1.5C5.3,5,5.8,5.5,6.3,6c0.5,0.5,1,0.9,1.4,1.3
		c0.4,0.4,0.8,0.7,1.1,1c0.3,0.3,0.5,0.5,0.6,0.6l0.4,0.5L9.7,8.8V0.6H12z"/>
	<path class="st0" d="M53.1,0.6v14.2c-0.1-0.1-0.3-0.3-0.6-0.6c-0.3-0.3-0.7-0.7-1.1-1.1c-0.4-0.4-0.9-0.9-1.4-1.4
		c-0.5-0.5-1.1-1-1.6-1.5c-0.5-0.5-1.1-1-1.6-1.5c-0.5-0.5-1-0.9-1.4-1.4c-0.4-0.4-0.8-0.8-1.1-1.1C44,6,43.8,5.8,43.7,5.7
		c0,0-0.1-0.1-0.1-0.2c-0.1-0.1-0.2-0.2-0.2-0.3l0.1,0.6v7.6c0,0.4-0.4,0.8-0.8,0.8h-1.5V0c0.1,0.1,0.3,0.3,0.6,0.6
		c0.3,0.3,0.7,0.6,1.1,1c0.4,0.4,0.9,0.9,1.4,1.3c0.5,0.5,1.1,1,1.6,1.5c0.5,0.5,1.1,1,1.6,1.5c0.5,0.5,1,0.9,1.4,1.3
		c0.4,0.4,0.8,0.7,1.1,1c0.3,0.3,0.5,0.5,0.6,0.6l0.4,0.5l-0.1-0.6V0.6H53.1z"/>
	<path class="st0" d="M25.5,7.4c0-0.9,0.2-1.8,0.5-2.7c0.4-0.8,0.9-1.6,1.5-2.2c0.6-0.6,1.4-1.1,2.2-1.5s1.7-0.6,2.7-0.6
		c0.9,0,1.8,0.2,2.7,0.6c0.8,0.4,1.6,0.9,2.2,1.5s1.1,1.4,1.5,2.2c0.4,0.8,0.5,1.7,0.5,2.7c0,1-0.2,1.8-0.5,2.7
		c-0.4,0.8-0.9,1.6-1.5,2.2c-0.6,0.6-1.4,1.1-2.2,1.5c-0.8,0.4-1.7,0.5-2.7,0.5c-1,0-1.8-0.2-2.7-0.5c-0.8-0.4-1.6-0.9-2.2-1.5
		c-0.6-0.6-1.1-1.4-1.5-2.2C25.7,9.3,25.5,8.4,25.5,7.4z M27.8,7.4c0,0.7,0.1,1.3,0.4,1.8c0.2,0.6,0.6,1.1,1,1.5
		c0.4,0.4,0.9,0.8,1.5,1c0.6,0.2,1.2,0.4,1.8,0.4c0.6,0,1.2-0.1,1.8-0.4c0.6-0.2,1.1-0.6,1.5-1c0.4-0.4,0.7-0.9,1-1.5
		c0.2-0.6,0.4-1.2,0.4-1.8c0-0.7-0.1-1.3-0.4-1.8c-0.2-0.6-0.6-1.1-1-1.5c-0.4-0.4-0.9-0.8-1.5-1c-0.6-0.2-1.2-0.4-1.8-0.4
		c-0.6,0-1.2,0.1-1.8,0.4c-0.6,0.2-1.1,0.6-1.5,1c-0.4,0.4-0.7,0.9-1,1.5C27.9,6.1,27.8,6.8,27.8,7.4z"/>
	<path class="st0" d="M14.6,14.2V0.6h9v2.1h-6.7v3.6h5.5v2.1h-5.5V12h7v2.1H14.6z"/>
</g>
</svg>
